# Blender v2.91.2 OBJ File: 'room.blend'
# www.blender.org
mtllib room.mtl
o Cube
v 2.000000 -1.000000 2.000000
v 2.000000 1.000000 2.000000
v -1.000000 1.000000 -1.000000
v -1.000000 -1.000000 -1.000000
v 2.000000 -1.000000 -1.000000
v 2.000000 1.000000 -1.000000
v -1.000000 -1.000000 2.000000
v -1.000000 1.000000 2.000000
v 1.999880 0.965806 -0.100000
v 1.999880 -0.965381 -0.100000
v 1.999880 0.965806 1.100000
v 1.999880 -0.965381 1.100000
v 2.199929 0.965806 -0.100000
v 2.199929 -0.965381 -0.100000
v 2.199929 0.965806 1.100000
v 2.199929 -0.965381 1.100000
v 2.199929 1.000000 2.000000
v 2.199929 -1.000000 2.000000
v 2.199929 1.000000 -1.000000
v 2.199929 -1.000000 -1.000000
v 5.199928 1.000000 2.000000
v 5.199928 -1.000000 2.000000
v 5.199928 1.000000 -1.000000
v 5.199928 -1.000000 -1.000000
v 3.099929 0.961574 -1.000000
v 3.099929 -0.954743 -1.000000
v 4.299929 0.961574 -1.000000
v 4.299929 -0.954743 -1.000000
v 3.099929 0.961574 -1.125112
v 3.099929 -0.954743 -1.125112
v 4.299929 0.961574 -1.125112
v 4.299929 -0.954743 -1.125112
v 3.099929 1.935026 -3.000000
v 3.099929 0.022628 -3.000000
v 4.299929 1.935026 -3.000000
v 4.299929 0.022628 -3.000000
v 5.199928 1.977372 -3.000000
v 5.199928 0.000000 -3.000000
v 2.199929 1.977372 -3.000000
v 2.199929 0.000000 -3.000000
v 5.199928 1.977372 -6.000000
v 5.199928 0.000000 -6.000000
v 2.199929 1.977372 -6.000000
v 2.199929 0.000000 -6.000000
v 2.199929 1.934208 -3.900000
v 2.199929 0.026751 -3.900000
v 2.199929 1.934208 -5.100000
v 2.199929 0.026751 -5.100000
v 1.999928 1.934208 -3.900000
v 1.999928 0.026751 -3.900000
v 1.999928 1.934208 -5.100000
v 1.999928 0.026751 -5.100000
v 1.999928 1.977372 -3.000000
v 1.999928 0.000000 -3.000000
v 1.999928 1.977372 -6.000000
v 1.999928 0.000000 -6.000000
v -1.000072 1.977372 -3.000000
v -1.000072 0.000000 -3.000000
v -1.000072 1.977372 -6.000000
v -1.000072 0.000000 -6.000000
v 1.099928 1.944326 -3.000000
v 1.099928 0.013163 -3.000000
v -0.100072 1.944326 -3.000000
v -0.100072 0.013163 -3.000000
v 1.099928 1.944326 -2.900000
v 1.099928 0.013163 -2.900000
v -0.100072 1.944326 -2.900000
v -0.100072 0.013163 -2.900000
v 3.099929 1.935026 -2.900000
v 3.099929 0.022628 -2.900000
v 4.299929 1.935026 -2.900000
v 4.299929 0.022628 -2.900000
v 1.100000 1.000000 -1.000000
v 1.100000 -0.982638 -1.000000
v -0.100000 1.000000 -1.000000
v -0.100000 -0.982638 -1.000000
v 1.100000 1.000000 -1.100000
v 1.100000 -0.982638 -1.100000
v -0.100000 1.000000 -1.100000
v -0.100000 -0.982638 -1.100000
vt -1.122148 -0.040659
vt -0.473162 -0.040650
vt -0.473171 0.605776
vt -1.122157 0.605768
vt 0.821098 -1.136796
vt 1.253755 -1.136796
vt 1.246266 -0.942100
vt 0.828495 -0.942100
vt -1.122157 1.254763
vt -1.122157 0.605777
vt -0.689500 0.605777
vt -0.689500 1.254763
vt 0.173968 -1.136796
vt 0.173968 -0.487810
vt -0.473162 -0.487810
vt -0.473162 -1.136796
vt -0.927452 -0.040656
vt -0.667858 -0.040653
vt -0.473162 1.459148
vt -0.473162 0.810162
vt -0.040504 0.810162
vt -0.040504 1.459148
vt -0.602947 1.277266
vt -0.602947 1.018414
vt -0.559671 1.018414
vt -0.559671 1.277266
vt 1.253755 -0.487810
vt 0.821098 -0.487810
vt 0.828495 -0.682506
vt 1.246266 -0.682506
vt 0.384664 1.004858
vt -0.033107 1.004858
vt -0.040504 0.810162
vt 0.392153 0.810162
vt -0.646223 1.023547
vt -0.646223 1.282118
vt -0.689500 1.282118
vt -0.689500 1.023547
vt -0.646223 0.605777
vt -0.689500 0.605777
vt -0.646223 1.023547
vt -0.646223 0.605777
vt -0.602947 0.605777
vt -0.602947 1.023547
vt -0.033107 1.264452
vt 0.384664 1.264452
vt 0.392153 1.459148
vt -0.040504 1.459148
vt 0.824810 0.810162
vt 0.824810 1.459148
vt 0.815020 1.264452
vt 0.815020 1.004858
vt 1.257467 1.459148
vt 0.824810 1.459148
vt 0.824810 0.810162
vt 1.257467 0.810162
vt 1.253052 0.810162
vt 0.820395 0.810162
vt 0.820395 0.161176
vt 1.253052 0.161176
vt 0.173968 -0.487810
vt 0.821098 -0.487810
vt 0.821098 0.161176
vt 0.173968 0.161176
vt 0.940308 1.459148
vt 1.199903 1.459148
vt 1.199903 1.486136
vt 0.940308 1.486136
vt 0.392153 1.459148
vt 0.400466 1.264452
vt 0.392153 0.810162
vt 0.400466 1.004858
vt 0.289558 2.129260
vt -0.078637 1.940618
vt -0.068772 1.921365
vt 0.299422 2.110007
vt -0.069527 1.459148
vt 0.299422 1.648177
vt 0.287081 1.672264
vt -0.081868 1.483236
vt 1.199902 1.459148
vt 1.459496 1.459148
vt 1.459496 1.486107
vt 1.199902 1.486107
vt 0.680713 1.940232
vt 0.311764 2.129261
vt 0.299422 2.105172
vt 0.668371 1.916144
vt -0.469617 1.653518
vt -0.091764 1.459148
vt -0.081869 1.478385
vt -0.459721 1.672755
vt 1.199902 1.906547
vt 0.940308 1.906547
vt 0.940308 1.884976
vt 1.199902 1.884976
vt -0.516415 0.865371
vt -0.494844 0.865371
vt -0.494844 0.605777
vt -0.516415 0.605777
vt 0.302654 1.647791
vt 0.670848 1.459148
vt 0.680713 1.478401
vt 0.312518 1.667044
vt 1.676622 -0.293115
vt 1.262916 -0.293115
vt 1.253755 -0.487810
vt 1.681517 -0.487810
vt 1.262916 -0.033519
vt 1.676622 -0.033519
vt 1.681517 0.161176
vt 1.253755 0.161176
vt 2.108576 0.810162
vt 1.680814 0.810162
vt 1.680814 0.161176
vt 2.108576 0.161176
vt 1.253052 0.161176
vt 1.680814 0.161176
vt 1.675027 0.355872
vt 1.262389 0.355872
vt 2.109279 -0.487810
vt 1.681517 -0.487810
vt 1.681517 -1.136796
vt 2.109279 -1.136796
vt 0.173968 -0.487810
vt 0.173968 -1.136796
vt 0.821098 -1.136796
vt 0.821098 -0.487810
vt -0.646223 1.282117
vt -0.646223 1.023547
vt -0.602958 1.023547
vt -0.602958 1.282117
vt 1.253052 0.810162
vt 1.262389 0.615466
vt 1.680814 0.810162
vt 1.675027 0.615466
vt 2.109280 0.161176
vt 1.681517 0.161176
vt 1.681517 -0.033520
vt 2.106432 -0.033520
vt -0.602947 1.018414
vt -0.602947 0.605777
vt -0.559682 0.605777
vt -0.559682 1.018414
vt -0.516406 1.018414
vt -0.516406 1.277266
vt -0.559671 1.277266
vt -0.559671 1.018414
vt -0.516416 0.605777
vt -0.516416 1.018414
vt -0.559682 1.018414
vt -0.559682 0.605777
vt 1.263092 -0.682505
vt 1.675730 -0.682505
vt 1.681517 -0.487810
vt 1.253755 -0.487810
vt 1.675730 -0.942101
vt 1.263092 -0.942101
vt 1.253755 -1.136796
vt 1.681517 -1.136796
vt -0.694395 1.903749
vt -1.122157 1.903749
vt -1.122157 1.254763
vt -0.694395 1.254763
vt -1.122157 -0.490370
vt -0.473171 -0.490361
vt -0.667867 -0.490362
vt -0.927461 -0.490367
vt 1.685229 0.810162
vt 1.685229 1.459148
vt 1.257467 1.459148
vt 1.257467 0.810162
vt -0.473162 -0.487810
vt 0.173968 -0.487810
vt 0.173968 0.161176
vt -0.473162 0.161176
vt 1.681517 -0.487810
vt 2.109280 -0.487810
vt 2.106432 -0.293114
vt 1.681517 -0.293114
vt 1.698670 1.274203
vt 1.685229 0.829399
vt 2.066628 1.025592
vt 2.076523 1.468573
vt -0.667867 -0.468816
vt -0.927461 -0.468819
vt 2.066628 1.487810
vt 1.688775 1.293440
vt 0.940308 1.906849
vt 0.680713 1.906858
vt 0.680713 1.885287
vt 0.940307 1.885278
vt 1.459496 1.887236
vt 1.199902 1.887236
vt -0.927452 -0.062204
vt -0.667857 -0.062201
vt 1.253755 0.161176
vt 0.821098 0.161176
vt 0.821098 -0.033520
vt 1.249999 -0.033520
vt 0.821098 -0.487810
vt 1.253755 -0.487810
vt 1.249999 -0.293114
vt 0.821098 -0.293114
vt 1.695125 0.810162
vt 2.076523 1.006355
vt 0.680713 1.459157
vt 0.940307 1.459148
vt 0.940308 1.480719
vt 0.680713 1.480728
vt -0.081869 1.940603
vt -0.463267 2.136796
vt -0.473162 2.117559
vt -0.091764 1.921366
vt 0.173968 0.161176
vt 0.820395 0.161176
vt 0.820394 0.810162
vt 0.173968 0.810162
vt -0.482323 1.060067
vt -0.473162 1.254762
vt -0.473162 0.605776
vt -0.482323 0.800471
vt 0.173264 0.161176
vt 0.173264 0.810162
vt -0.473162 0.810162
vt -0.473162 0.161176
vt -0.473162 -1.136787
vt -1.122148 -1.136796
vn 0.0000 -1.0000 0.0000
vn -1.0000 0.0000 -0.0001
vn 0.0000 0.0000 -1.0000
vn 0.0000 1.0000 0.0000
vn 1.0000 0.0000 0.0000
vn -1.0000 0.0000 0.0001
vn -1.0000 0.0035 0.0000
vn -1.0000 -0.0035 0.0000
vn 0.0000 0.0000 1.0000
vn -1.0000 0.0000 0.0000
vn 0.0000 0.8760 0.4824
vn 0.0000 -0.8768 -0.4809
vn 0.0000 -0.8855 -0.4646
vn 0.0000 0.8750 0.4841
usemtl wood
s off
f 3/1/1 6/2/1 2/3/1 8/4/1
f 6/5/2 5/6/2 10/7/2 9/8/2
f 8/9/3 2/10/3 1/11/3 7/12/3
f 7/13/4 1/14/4 5/15/4 4/16/4
f 6/2/3 3/1/3 75/17/3 73/18/3
f 3/19/5 8/20/5 7/21/5 4/22/5
f 10/23/4 12/24/4 16/25/4 14/26/4
f 1/27/6 2/28/6 11/29/6 12/30/6
f 2/28/7 6/5/7 9/8/7 11/29/7
f 5/6/8 1/27/8 12/30/8 10/7/8
f 16/31/5 15/32/5 17/33/5 18/34/5
f 11/35/1 9/36/1 13/37/1 15/38/1
f 12/39/3 11/35/3 15/38/3 16/40/3
f 9/41/9 10/42/9 14/43/9 13/44/9
f 13/45/5 14/46/5 20/47/5 19/48/5
f 20/49/9 24/50/9 28/51/9 26/52/9
f 18/53/3 17/54/3 21/55/3 22/56/3
f 22/57/10 21/58/10 23/59/10 24/60/10
f 14/46/5 16/31/5 18/34/5 20/47/5
f 20/61/4 18/62/4 22/63/4 24/64/4
f 26/65/4 28/66/4 32/67/4 30/68/4
f 24/50/9 23/69/9 27/70/9 28/51/9
f 19/71/9 20/49/9 26/52/9 25/72/9
f 23/69/9 19/71/9 25/72/9 27/70/9
f 35/73/10 36/74/10 72/75/10 71/76/10
f 28/77/10 27/78/10 31/79/10 32/80/10
f 27/81/1 25/82/1 29/83/1 31/84/1
f 25/85/5 26/86/5 30/87/5 29/88/5
f 64/89/5 63/90/5 67/91/5 68/92/5
f 36/93/4 34/94/4 70/95/4 72/96/4
f 35/97/1 71/98/1 69/99/1 33/100/1
f 34/101/5 33/102/5 69/103/5 70/104/5
f 36/105/3 35/106/3 37/107/3 38/108/3
f 33/109/3 34/110/3 40/111/3 39/112/3
f 38/113/10 37/114/10 41/115/10 42/116/10
f 39/117/5 40/118/5 46/119/5 45/120/5
f 42/121/9 41/122/9 43/123/9 44/124/9
f 40/111/3 34/110/3 36/105/3 38/108/3
f 42/125/4 44/126/4 40/127/4 38/128/4
f 47/129/1 45/130/1 49/131/1 51/132/1
f 43/133/5 39/117/5 45/120/5 47/134/5
f 40/118/5 44/135/5 48/136/5 46/119/5
f 44/135/5 43/133/5 47/134/5 48/136/5
f 58/137/3 57/138/3 63/139/3 64/140/3
f 45/141/3 46/142/3 50/143/3 49/144/3
f 46/145/4 48/146/4 52/147/4 50/148/4
f 48/149/9 47/150/9 51/151/9 52/152/9
f 49/153/10 50/154/10 54/155/10 53/156/10
f 52/157/10 51/158/10 55/159/10 56/160/10
f 56/161/9 55/162/9 59/163/9 60/164/9
f 57/165/3 53/166/3 61/167/3 63/168/3
f 58/169/5 60/170/5 59/171/5 57/172/5
f 54/155/10 50/154/10 52/157/10 56/160/10
f 60/173/4 58/174/4 54/175/4 56/176/4
f 53/177/3 54/178/3 62/179/3 61/180/3
f 54/178/3 58/137/3 64/140/3 62/179/3
f 66/181/10 78/182/10 77/183/10 65/184/10
f 63/168/1 61/167/1 65/185/1 67/186/1
f 61/187/10 62/188/10 66/181/10 65/184/10
f 62/189/4 64/190/4 68/191/4 66/192/4
f 32/67/11 72/96/11 70/95/11 30/68/11
f 32/80/10 31/79/10 71/76/10 72/75/10
f 31/84/12 29/83/12 69/193/12 71/194/12
f 30/87/5 70/104/5 69/103/5 29/88/5
f 73/18/1 75/17/1 79/195/1 77/196/1
f 5/197/9 6/198/9 73/199/9 74/200/9
f 3/201/9 4/202/9 76/203/9 75/204/9
f 4/202/9 5/197/9 74/200/9 76/203/9
f 67/186/13 65/185/13 77/196/13 79/195/13
f 74/205/10 73/206/10 77/183/10 78/182/10
f 76/207/4 74/208/4 78/209/4 80/210/4
f 75/211/5 76/212/5 80/213/5 79/214/5
f 68/92/5 67/91/5 79/214/5 80/213/5
f 66/192/14 68/191/14 80/210/14 78/209/14
f 13/45/5 19/48/5 17/33/5 15/32/5
f 23/215/1 21/216/1 17/217/1 19/218/1
f 33/219/3 39/220/3 37/221/3 35/222/3
f 37/223/1 39/224/1 43/225/1 41/226/1
f 51/158/10 49/153/10 53/156/10 55/159/10
f 55/227/1 53/166/1 57/165/1 59/228/1
