# Blender v2.91.2 OBJ File: ''
# www.blender.org
mtllib untitled.mtl
o Plane
v -3.000000 0.000000 3.000000
v 3.000000 0.000000 3.000000
v -3.000000 0.000000 -3.000000
v 3.000000 0.000000 -3.000000
v -3.000000 2.047213 3.000000
v -3.000000 2.047213 -3.000000
v 3.000000 2.047213 3.000000
v 3.000000 2.047213 -3.000000
v -3.000000 0.000000 -1.800000
v -3.000000 0.000000 -0.600000
v -3.000000 0.000000 0.600000
v -3.000000 0.000000 1.800000
v -1.800000 0.000000 3.000000
v -0.600000 0.000000 3.000000
v 0.600000 0.000000 3.000000
v 1.800000 0.000000 3.000000
v 3.000000 0.000000 1.800000
v 3.000000 0.000000 0.600000
v 3.000000 0.000000 -0.600000
v 3.000000 0.000000 -1.800000
v 1.800000 0.000000 -3.000000
v 0.600000 0.000000 -3.000000
v -0.600000 0.000000 -3.000000
v -1.800000 0.000000 -3.000000
v -3.000000 2.047213 -1.800000
v -3.000000 2.047213 -0.600000
v -3.000000 2.047213 0.600000
v -3.000000 2.047213 1.800000
v -3.000000 1.637770 3.000000
v -3.000000 1.228328 3.000000
v -3.000000 0.818885 3.000000
v -3.000000 0.409443 3.000000
v -3.000000 0.409443 -3.000000
v -3.000000 0.818885 -3.000000
v -3.000000 1.228328 -3.000000
v -3.000000 1.637770 -3.000000
v 3.000000 2.047213 1.800000
v 3.000000 2.047213 0.600000
v 3.000000 2.047213 -0.600000
v 3.000000 2.047213 -1.800000
v 3.000000 1.637770 -3.000000
v 3.000000 1.228328 -3.000000
v 3.000000 0.818885 -3.000000
v 3.000000 0.409443 -3.000000
v 3.000000 0.409443 3.000000
v 3.000000 0.818885 3.000000
v 3.000000 1.228328 3.000000
v 3.000000 1.637770 3.000000
v -1.800000 2.047213 3.000000
v -0.600000 2.047213 3.000000
v 0.600000 2.047213 3.000000
v 1.800000 2.047213 3.000000
v -1.800000 2.047213 -3.000000
v -0.600000 2.047213 -3.000000
v 0.600000 2.047213 -3.000000
v 1.800000 2.047213 -3.000000
v -1.800000 2.047213 -1.800000
v -1.800000 2.047213 -0.600000
v -1.800000 2.047213 0.600000
v -1.800000 2.047213 1.800000
v -0.600000 2.047213 -1.800000
v -0.600000 2.047213 -0.600000
v -0.600000 2.047213 0.600000
v -0.600000 2.047213 1.800000
v 0.600000 2.047213 -1.800000
v 0.600000 2.047213 -0.600000
v 0.600000 2.047213 0.600000
v 0.600000 2.047213 1.800000
v 1.800000 2.047213 -1.800000
v 1.800000 2.047213 -0.600000
v 1.800000 2.047213 0.600000
v 1.800000 2.047213 1.800000
v 1.800000 0.409443 -3.000000
v 0.600000 0.409443 -3.000000
v -0.600000 0.409443 -3.000000
v -1.800000 0.409443 -3.000000
v 1.800000 0.818885 -3.000000
v 0.600000 0.818885 -3.000000
v -0.600000 0.818885 -3.000000
v -1.800000 0.818885 -3.000000
v 1.800000 1.228328 -3.000000
v 0.600000 1.228328 -3.000000
v -0.600000 1.228328 -3.000000
v -1.800000 1.228328 -3.000000
v 1.800000 1.637770 -3.000000
v 0.600000 1.637770 -3.000000
v -0.600000 1.637770 -3.000000
v -1.800000 1.637770 -3.000000
v 1.800000 0.409443 3.000000
v 1.800000 0.818885 3.000000
v 1.800000 1.228328 3.000000
v 1.800000 1.637770 3.000000
v 0.600000 0.409443 3.000000
v 0.600000 0.818885 3.000000
v 0.600000 1.228328 3.000000
v 0.600000 1.637770 3.000000
v -0.600000 0.409443 3.000000
v -0.600000 0.818885 3.000000
v -0.600000 1.228328 3.000000
v -0.600000 1.637770 3.000000
v -1.800000 0.409443 3.000000
v -1.800000 0.818885 3.000000
v -1.800000 1.228328 3.000000
v -1.800000 1.637770 3.000000
v 3.000000 0.409443 -1.800000
v 3.000000 0.818885 -1.800000
v 3.000000 1.228328 -1.800000
v 3.000000 1.637770 -1.800000
v 3.000000 0.409443 -0.600000
v 3.000000 0.818885 -0.600000
v 3.000000 1.228328 -0.600000
v 3.000000 1.637770 -0.600000
v 3.000000 0.409443 0.600000
v 3.000000 0.818885 0.600000
v 3.000000 1.228328 0.600000
v 3.000000 1.637770 0.600000
v 3.000000 0.409443 1.800000
v 3.000000 0.818885 1.800000
v 3.000000 1.228328 1.800000
v 3.000000 1.637770 1.800000
v -3.000000 0.409443 1.800000
v -3.000000 0.818885 1.800000
v -3.000000 1.228328 1.800000
v -3.000000 1.637770 1.800000
v -3.000000 0.409443 0.600000
v -3.000000 0.818885 0.600000
v -3.000000 1.228328 0.600000
v -3.000000 1.637770 0.600000
v -3.000000 0.409443 -0.600000
v -3.000000 0.818885 -0.600000
v -3.000000 1.228328 -0.600000
v -3.000000 1.637770 -0.600000
v -3.000000 0.409443 -1.800000
v -3.000000 0.818885 -1.800000
v -3.000000 1.228328 -1.800000
v -3.000000 1.637770 -1.800000
v -1.800000 0.000000 1.800000
v -1.800000 0.000000 0.600000
v -1.800000 0.000000 -0.600000
v -1.800000 0.000000 -1.800000
v -0.600000 0.000000 1.800000
v -0.600000 0.000000 0.600000
v -0.600000 0.000000 -0.600000
v -0.600000 0.000000 -1.800000
v 0.600000 0.000000 1.800000
v 0.600000 0.000000 0.600000
v 0.600000 0.000000 -0.600000
v 0.600000 0.000000 -1.800000
v 1.800000 0.000000 1.800000
v 1.800000 0.000000 0.600000
v 1.800000 0.000000 -0.600000
v 1.800000 0.000000 -1.800000
vt 1.109266 1.109266
vt 1.515443 1.109266
vt 1.515443 1.515443
vt 1.109266 1.515443
vt -0.515443 1.109266
vt -0.109266 1.109266
vt -0.109266 1.515443
vt -0.515443 1.515443
vt 0.296911 1.109266
vt 0.296911 1.515443
vt 0.703089 1.109266
vt 0.703089 1.515443
vt -0.515443 -0.515443
vt -0.109266 -0.515443
vt -0.109266 -0.109266
vt -0.515443 -0.109266
vt -0.109266 0.296911
vt -0.515443 0.296911
vt -0.109266 0.703089
vt -0.515443 0.703089
vt 0.296911 -0.515443
vt 0.296911 -0.109266
vt 0.296911 0.296911
vt 0.296911 0.703089
vt 0.703089 -0.515443
vt 0.703089 -0.109266
vt 0.703089 0.296911
vt 0.703089 0.703089
vt 1.109266 -0.515443
vt 1.109266 -0.109266
vt 1.109266 0.296911
vt 1.109266 0.703089
vt 1.515443 -0.515443
vt 1.515443 -0.109266
vt 1.515443 0.296911
vt 1.515443 0.703089
vt 0.051781 1.329778
vt 0.051781 1.537222
vt -0.042168 1.537222
vt -0.042168 1.329778
vt -0.417963 1.329778
vt -0.417963 1.537222
vt -0.511912 1.537222
vt -0.511912 1.329778
vt 0.619259 0.292556
vt 0.619259 0.500000
vt 0.525311 0.500000
vt 0.525311 0.292556
vt 1.089003 -0.329778
vt 0.995054 -0.329778
vt 0.995054 -0.537222
vt 1.089003 -0.537222
vt 0.317866 0.292556
vt 0.525311 0.292556
vt 0.525311 0.500000
vt 0.317866 0.500000
vt -0.511912 0.292556
vt -0.304467 0.292556
vt -0.304467 0.500000
vt -0.511912 0.500000
vt -0.097023 0.292556
vt -0.097023 0.500000
vt 0.110422 0.292556
vt 0.110422 0.500000
vt -0.511912 -0.537222
vt -0.304467 -0.537222
vt -0.304467 -0.329778
vt -0.511912 -0.329778
vt -0.304467 -0.122333
vt -0.511912 -0.122333
vt -0.304467 0.085111
vt -0.511912 0.085111
vt -0.097023 -0.537222
vt -0.097023 -0.329778
vt -0.097023 -0.122333
vt -0.097023 0.085111
vt 0.110422 -0.537222
vt 0.110422 -0.329778
vt 0.110422 -0.122333
vt 0.110422 0.085111
vt 0.317866 -0.537222
vt 0.317866 -0.329778
vt 0.317866 -0.122333
vt 0.317866 0.085111
vt 0.525311 -0.537222
vt 0.525311 -0.329778
vt 0.525311 -0.122333
vt 0.525311 0.085111
vt 1.464798 -0.329778
vt 1.370849 -0.329778
vt 1.370849 -0.537222
vt 1.464798 -0.537222
vt 1.276901 -0.329778
vt 1.276901 -0.537222
vt 1.182952 -0.329778
vt 1.182952 -0.537222
vt 1.464798 0.500000
vt 1.370849 0.500000
vt 1.370849 0.292556
vt 1.464798 0.292556
vt 1.370849 0.085111
vt 1.464798 0.085111
vt 1.370849 -0.122333
vt 1.464798 -0.122333
vt 1.276901 0.500000
vt 1.276901 0.292556
vt 1.276901 0.085111
vt 1.276901 -0.122333
vt 1.182952 0.500000
vt 1.182952 0.292556
vt 1.182952 0.085111
vt 1.182952 -0.122333
vt 1.089003 0.500000
vt 1.089003 0.292556
vt 1.089003 0.085111
vt 1.089003 -0.122333
vt 0.995054 0.500000
vt 0.995054 0.292556
vt 0.995054 0.085111
vt 0.995054 -0.122333
vt 0.619259 -0.537222
vt 0.619259 -0.329778
vt 0.525311 -0.329778
vt 0.525311 -0.537222
vt 0.619259 -0.122333
vt 0.525311 -0.122333
vt 0.619259 0.085111
vt 0.525311 0.085111
vt 0.995054 -0.537222
vt 0.995054 -0.329778
vt 0.901106 -0.329778
vt 0.901106 -0.537222
vt 0.807157 -0.329778
vt 0.807157 -0.537222
vt 0.713208 -0.329778
vt 0.713208 -0.537222
vt 0.995054 -0.122333
vt 0.901106 -0.122333
vt 0.807157 -0.122333
vt 0.713208 -0.122333
vt 0.995054 0.085111
vt 0.901106 0.085111
vt 0.807157 0.085111
vt 0.713208 0.085111
vt 0.995054 0.292556
vt 0.901106 0.292556
vt 0.807157 0.292556
vt 0.713208 0.292556
vt 0.995054 0.500000
vt 0.901106 0.500000
vt 0.807157 0.500000
vt 0.713208 0.500000
vt -0.417963 0.500000
vt -0.417963 0.707444
vt -0.511912 0.707444
vt -0.511912 0.500000
vt -0.417963 0.914889
vt -0.511912 0.914889
vt -0.417963 1.122334
vt -0.511912 1.122334
vt -0.042168 0.500000
vt -0.042168 0.707444
vt -0.136117 0.707444
vt -0.136117 0.500000
vt -0.230066 0.707444
vt -0.230066 0.500000
vt -0.324014 0.707444
vt -0.324014 0.500000
vt -0.042168 0.914889
vt -0.136117 0.914889
vt -0.230066 0.914889
vt -0.324014 0.914889
vt -0.042168 1.122334
vt -0.136117 1.122334
vt -0.230066 1.122334
vt -0.324014 1.122334
vt -0.042168 1.329778
vt -0.136117 1.329778
vt -0.230066 1.329778
vt -0.324014 1.329778
vt -0.042168 1.537222
vt -0.136117 1.537222
vt -0.230066 1.537222
vt -0.324014 1.537222
vt 0.051781 0.500000
vt 0.051781 0.707444
vt -0.042168 0.707444
vt -0.042168 0.500000
vt 0.051781 0.914889
vt -0.042168 0.914889
vt 0.051781 1.122334
vt -0.042168 1.122334
vt 0.427576 0.500000
vt 0.427576 0.707444
vt 0.333627 0.707444
vt 0.333627 0.500000
vt 0.239678 0.707444
vt 0.239678 0.500000
vt 0.145729 0.707444
vt 0.145729 0.500000
vt 0.427576 0.914889
vt 0.333627 0.914889
vt 0.239678 0.914889
vt 0.145729 0.914889
vt 0.427576 1.122334
vt 0.333627 1.122334
vt 0.239678 1.122334
vt 0.145729 1.122334
vt 0.427576 1.329778
vt 0.333627 1.329778
vt 0.239678 1.329778
vt 0.145729 1.329778
vt 0.427576 1.537222
vt 0.333627 1.537222
vt 0.239678 1.537222
vt 0.145729 1.537222
vn 0.0000 1.0000 0.0000
vn 1.0000 0.0000 0.0000
vn -1.0000 0.0000 0.0000
vn 0.0000 0.0000 -1.0000
vn 0.0000 0.0000 1.0000
vn 0.0000 -1.0000 0.0000
usemtl floor
s off
f 152/1/1 20/2/1 4/3/1 21/4/1
f 9/5/1 140/6/1 24/7/1 3/8/1
f 140/6/1 144/9/1 23/10/1 24/7/1
f 144/9/1 148/11/1 22/12/1 23/10/1
f 148/11/1 152/1/1 21/4/1 22/12/1
f 1/13/1 13/14/1 137/15/1 12/16/1
f 12/16/1 137/15/1 138/17/1 11/18/1
f 11/18/1 138/17/1 139/19/1 10/20/1
f 10/20/1 139/19/1 140/6/1 9/5/1
f 13/14/1 14/21/1 141/22/1 137/15/1
f 137/15/1 141/22/1 142/23/1 138/17/1
f 138/17/1 142/23/1 143/24/1 139/19/1
f 139/19/1 143/24/1 144/9/1 140/6/1
f 14/21/1 15/25/1 145/26/1 141/22/1
f 141/22/1 145/26/1 146/27/1 142/23/1
f 142/23/1 146/27/1 147/28/1 143/24/1
f 143/24/1 147/28/1 148/11/1 144/9/1
f 15/25/1 16/29/1 149/30/1 145/26/1
f 145/26/1 149/30/1 150/31/1 146/27/1
f 146/27/1 150/31/1 151/32/1 147/28/1
f 147/28/1 151/32/1 152/1/1 148/11/1
f 16/29/1 2/33/1 17/34/1 149/30/1
f 149/30/1 17/34/1 18/35/1 150/31/1
f 150/31/1 18/35/1 19/36/1 151/32/1
f 151/32/1 19/36/1 20/2/1 152/1/1
usemtl wall
f 136/37/2 36/38/2 6/39/2 25/40/2
f 120/41/3 48/42/3 7/43/3 37/44/3
f 104/45/4 29/46/4 5/47/4 49/48/4
f 88/49/5 53/50/5 6/51/5 36/52/5
f 72/53/6 37/54/6 7/55/6 52/56/6
f 28/57/6 60/58/6 49/59/6 5/60/6
f 60/58/6 64/61/6 50/62/6 49/59/6
f 64/61/6 68/63/6 51/64/6 50/62/6
f 68/63/6 72/53/6 52/56/6 51/64/6
f 6/65/6 53/66/6 57/67/6 25/68/6
f 25/68/6 57/67/6 58/69/6 26/70/6
f 26/70/6 58/69/6 59/71/6 27/72/6
f 27/72/6 59/71/6 60/58/6 28/57/6
f 53/66/6 54/73/6 61/74/6 57/67/6
f 57/67/6 61/74/6 62/75/6 58/69/6
f 58/69/6 62/75/6 63/76/6 59/71/6
f 59/71/6 63/76/6 64/61/6 60/58/6
f 54/73/6 55/77/6 65/78/6 61/74/6
f 61/74/6 65/78/6 66/79/6 62/75/6
f 62/75/6 66/79/6 67/80/6 63/76/6
f 63/76/6 67/80/6 68/63/6 64/61/6
f 55/77/6 56/81/6 69/82/6 65/78/6
f 65/78/6 69/82/6 70/83/6 66/79/6
f 66/79/6 70/83/6 71/84/6 67/80/6
f 67/80/6 71/84/6 72/53/6 68/63/6
f 56/81/6 8/85/6 40/86/6 69/82/6
f 69/82/6 40/86/6 39/87/6 70/83/6
f 70/83/6 39/87/6 38/88/6 71/84/6
f 71/84/6 38/88/6 37/54/6 72/53/6
f 24/89/5 76/90/5 33/91/5 3/92/5
f 76/90/5 80/93/5 34/94/5 33/91/5
f 80/93/5 84/95/5 35/96/5 34/94/5
f 84/95/5 88/49/5 36/52/5 35/96/5
f 4/97/5 44/98/5 73/99/5 21/100/5
f 21/100/5 73/99/5 74/101/5 22/102/5
f 22/102/5 74/101/5 75/103/5 23/104/5
f 23/104/5 75/103/5 76/90/5 24/89/5
f 44/98/5 43/105/5 77/106/5 73/99/5
f 73/99/5 77/106/5 78/107/5 74/101/5
f 74/101/5 78/107/5 79/108/5 75/103/5
f 75/103/5 79/108/5 80/93/5 76/90/5
f 43/105/5 42/109/5 81/110/5 77/106/5
f 77/106/5 81/110/5 82/111/5 78/107/5
f 78/107/5 82/111/5 83/112/5 79/108/5
f 79/108/5 83/112/5 84/95/5 80/93/5
f 42/109/5 41/113/5 85/114/5 81/110/5
f 81/110/5 85/114/5 86/115/5 82/111/5
f 82/111/5 86/115/5 87/116/5 83/112/5
f 83/112/5 87/116/5 88/49/5 84/95/5
f 41/113/5 8/117/5 56/118/5 85/114/5
f 85/114/5 56/118/5 55/119/5 86/115/5
f 86/115/5 55/119/5 54/120/5 87/116/5
f 87/116/5 54/120/5 53/50/5 88/49/5
f 48/121/4 92/122/4 52/123/4 7/124/4
f 92/122/4 96/125/4 51/126/4 52/123/4
f 96/125/4 100/127/4 50/128/4 51/126/4
f 100/127/4 104/45/4 49/48/4 50/128/4
f 2/129/4 16/130/4 89/131/4 45/132/4
f 45/132/4 89/131/4 90/133/4 46/134/4
f 46/134/4 90/133/4 91/135/4 47/136/4
f 47/136/4 91/135/4 92/122/4 48/121/4
f 16/130/4 15/137/4 93/138/4 89/131/4
f 89/131/4 93/138/4 94/139/4 90/133/4
f 90/133/4 94/139/4 95/140/4 91/135/4
f 91/135/4 95/140/4 96/125/4 92/122/4
f 15/137/4 14/141/4 97/142/4 93/138/4
f 93/138/4 97/142/4 98/143/4 94/139/4
f 94/139/4 98/143/4 99/144/4 95/140/4
f 95/140/4 99/144/4 100/127/4 96/125/4
f 14/141/4 13/145/4 101/146/4 97/142/4
f 97/142/4 101/146/4 102/147/4 98/143/4
f 98/143/4 102/147/4 103/148/4 99/144/4
f 99/144/4 103/148/4 104/45/4 100/127/4
f 13/145/4 1/149/4 32/150/4 101/146/4
f 101/146/4 32/150/4 31/151/4 102/147/4
f 102/147/4 31/151/4 30/152/4 103/148/4
f 103/148/4 30/152/4 29/46/4 104/45/4
f 41/153/3 108/154/3 40/155/3 8/156/3
f 108/154/3 112/157/3 39/158/3 40/155/3
f 112/157/3 116/159/3 38/160/3 39/158/3
f 116/159/3 120/41/3 37/44/3 38/160/3
f 4/161/3 20/162/3 105/163/3 44/164/3
f 44/164/3 105/163/3 106/165/3 43/166/3
f 43/166/3 106/165/3 107/167/3 42/168/3
f 42/168/3 107/167/3 108/154/3 41/153/3
f 20/162/3 19/169/3 109/170/3 105/163/3
f 105/163/3 109/170/3 110/171/3 106/165/3
f 106/165/3 110/171/3 111/172/3 107/167/3
f 107/167/3 111/172/3 112/157/3 108/154/3
f 19/169/3 18/173/3 113/174/3 109/170/3
f 109/170/3 113/174/3 114/175/3 110/171/3
f 110/171/3 114/175/3 115/176/3 111/172/3
f 111/172/3 115/176/3 116/159/3 112/157/3
f 18/173/3 17/177/3 117/178/3 113/174/3
f 113/174/3 117/178/3 118/179/3 114/175/3
f 114/175/3 118/179/3 119/180/3 115/176/3
f 115/176/3 119/180/3 120/41/3 116/159/3
f 17/177/3 2/181/3 45/182/3 117/178/3
f 117/178/3 45/182/3 46/183/3 118/179/3
f 118/179/3 46/183/3 47/184/3 119/180/3
f 119/180/3 47/184/3 48/42/3 120/41/3
f 29/185/2 124/186/2 28/187/2 5/188/2
f 124/186/2 128/189/2 27/190/2 28/187/2
f 128/189/2 132/191/2 26/192/2 27/190/2
f 132/191/2 136/37/2 25/40/2 26/192/2
f 1/193/2 12/194/2 121/195/2 32/196/2
f 32/196/2 121/195/2 122/197/2 31/198/2
f 31/198/2 122/197/2 123/199/2 30/200/2
f 30/200/2 123/199/2 124/186/2 29/185/2
f 12/194/2 11/201/2 125/202/2 121/195/2
f 121/195/2 125/202/2 126/203/2 122/197/2
f 122/197/2 126/203/2 127/204/2 123/199/2
f 123/199/2 127/204/2 128/189/2 124/186/2
f 11/201/2 10/205/2 129/206/2 125/202/2
f 125/202/2 129/206/2 130/207/2 126/203/2
f 126/203/2 130/207/2 131/208/2 127/204/2
f 127/204/2 131/208/2 132/191/2 128/189/2
f 10/205/2 9/209/2 133/210/2 129/206/2
f 129/206/2 133/210/2 134/211/2 130/207/2
f 130/207/2 134/211/2 135/212/2 131/208/2
f 131/208/2 135/212/2 136/37/2 132/191/2
f 9/209/2 3/213/2 33/214/2 133/210/2
f 133/210/2 33/214/2 34/215/2 134/211/2
f 134/211/2 34/215/2 35/216/2 135/212/2
f 135/212/2 35/216/2 36/38/2 136/37/2
